<svg width="34" height="34" viewBox="0 0 34 34" fill="none" xmlns="http://www.w3.org/2000/svg">
<circle cx="17" cy="17" r="17" fill="#F3F7FD"/>
<path d="M15 15.4H15.8C16.0122 15.4 16.2157 15.3157 16.3657 15.1657C16.5157 15.0157 16.6 14.8122 16.6 14.6C16.6 14.3878 16.5157 14.1843 16.3657 14.0343C16.2157 13.8843 16.0122 13.8 15.8 13.8H15C14.7878 13.8 14.5843 13.8843 14.4343 14.0343C14.2843 14.1843 14.2 14.3878 14.2 14.6C14.2 14.8122 14.2843 15.0157 14.4343 15.1657C14.5843 15.3157 14.7878 15.4 15 15.4ZM15 17C14.7878 17 14.5843 17.0843 14.4343 17.2343C14.2843 17.3843 14.2 17.5878 14.2 17.8C14.2 18.0122 14.2843 18.2157 14.4343 18.3657C14.5843 18.5157 14.7878 18.6 15 18.6H19.8C20.0122 18.6 20.2157 18.5157 20.3657 18.3657C20.5157 18.2157 20.6 18.0122 20.6 17.8C20.6 17.5878 20.5157 17.3843 20.3657 17.2343C20.2157 17.0843 20.0122 17 19.8 17H15ZM23.8 14.552C23.7917 14.4785 23.7756 14.4061 23.752 14.336V14.264C23.7135 14.1817 23.6622 14.1061 23.6 14.04L18.8 9.24C18.7339 9.17777 18.6583 9.12646 18.576 9.088C18.5521 9.08461 18.5279 9.08461 18.504 9.088C18.4227 9.04139 18.333 9.01148 18.24 9H13.4C12.7635 9 12.153 9.25286 11.7029 9.70294C11.2529 10.153 11 10.7635 11 11.4V22.6C11 23.2365 11.2529 23.847 11.7029 24.2971C12.153 24.7471 12.7635 25 13.4 25H21.4C22.0365 25 22.647 24.7471 23.0971 24.2971C23.5471 23.847 23.8 23.2365 23.8 22.6V14.6C23.8 14.6 23.8 14.6 23.8 14.552ZM19 11.728L21.072 13.8H19.8C19.5878 13.8 19.3843 13.7157 19.2343 13.5657C19.0843 13.4157 19 13.2122 19 13V11.728ZM22.2 22.6C22.2 22.8122 22.1157 23.0157 21.9657 23.1657C21.8157 23.3157 21.6122 23.4 21.4 23.4H13.4C13.1878 23.4 12.9843 23.3157 12.8343 23.1657C12.6843 23.0157 12.6 22.8122 12.6 22.6V11.4C12.6 11.1878 12.6843 10.9843 12.8343 10.8343C12.9843 10.6843 13.1878 10.6 13.4 10.6H17.4V13C17.4 13.6365 17.6529 14.247 18.1029 14.6971C18.553 15.1471 19.1635 15.4 19.8 15.4H22.2V22.6ZM19.8 20.2H15C14.7878 20.2 14.5843 20.2843 14.4343 20.4343C14.2843 20.5843 14.2 20.7878 14.2 21C14.2 21.2122 14.2843 21.4157 14.4343 21.5657C14.5843 21.7157 14.7878 21.8 15 21.8H19.8C20.0122 21.8 20.2157 21.7157 20.3657 21.5657C20.5157 21.4157 20.6 21.2122 20.6 21C20.6 20.7878 20.5157 20.5843 20.3657 20.4343C20.2157 20.2843 20.0122 20.2 19.8 20.2Z" fill="#8D98A9"/>
</svg>
