<svg width="34" height="34" viewBox="0 0 34 34" fill="none" xmlns="http://www.w3.org/2000/svg">
<circle cx="17" cy="17" r="17" fill="#F3F7FD"/>
<path d="M19.8 18.6H15C14.7878 18.6 14.5843 18.6843 14.4343 18.8343C14.2843 18.9843 14.2 19.1878 14.2 19.4C14.2 19.6122 14.2843 19.8157 14.4343 19.9657C14.5843 20.1157 14.7878 20.2 15 20.2H19.8C20.0122 20.2 20.2157 20.1157 20.3657 19.9657C20.5157 19.8157 20.6 19.6122 20.6 19.4C20.6 19.1878 20.5157 18.9843 20.3657 18.8343C20.2157 18.6843 20.0122 18.6 19.8 18.6ZM19.8 15.4H16.6C16.3878 15.4 16.1843 15.4843 16.0343 15.6343C15.8843 15.7843 15.8 15.9878 15.8 16.2C15.8 16.4122 15.8843 16.6157 16.0343 16.7657C16.1843 16.9157 16.3878 17 16.6 17H19.8C20.0122 17 20.2157 16.9157 20.3657 16.7657C20.5157 16.6157 20.6 16.4122 20.6 16.2C20.6 15.9878 20.5157 15.7843 20.3657 15.6343C20.2157 15.4843 20.0122 15.4 19.8 15.4ZM21.4 10.6H20.456C20.2909 10.1332 19.9855 9.7288 19.5817 9.44235C19.1778 9.1559 18.6952 9.00139 18.2 9H16.6C16.1048 9.00139 15.6222 9.1559 15.2183 9.44235C14.8145 9.7288 14.5091 10.1332 14.344 10.6H13.4C12.7635 10.6 12.153 10.8529 11.7029 11.3029C11.2529 11.753 11 12.3635 11 13V22.6C11 23.2365 11.2529 23.847 11.7029 24.2971C12.153 24.7471 12.7635 25 13.4 25H21.4C22.0365 25 22.647 24.7471 23.0971 24.2971C23.5471 23.847 23.8 23.2365 23.8 22.6V13C23.8 12.3635 23.5471 11.753 23.0971 11.3029C22.647 10.8529 22.0365 10.6 21.4 10.6ZM15.8 11.4C15.8 11.1878 15.8843 10.9843 16.0343 10.8343C16.1843 10.6843 16.3878 10.6 16.6 10.6H18.2C18.4122 10.6 18.6157 10.6843 18.7657 10.8343C18.9157 10.9843 19 11.1878 19 11.4V12.2H15.8V11.4ZM22.2 22.6C22.2 22.8122 22.1157 23.0157 21.9657 23.1657C21.8157 23.3157 21.6122 23.4 21.4 23.4H13.4C13.1878 23.4 12.9843 23.3157 12.8343 23.1657C12.6843 23.0157 12.6 22.8122 12.6 22.6V13C12.6 12.7878 12.6843 12.5843 12.8343 12.4343C12.9843 12.2843 13.1878 12.2 13.4 12.2H14.2V13C14.2 13.2122 14.2843 13.4157 14.4343 13.5657C14.5843 13.7157 14.7878 13.8 15 13.8H19.8C20.0122 13.8 20.2157 13.7157 20.3657 13.5657C20.5157 13.4157 20.6 13.2122 20.6 13V12.2H21.4C21.6122 12.2 21.8157 12.2843 21.9657 12.4343C22.1157 12.5843 22.2 12.7878 22.2 13V22.6Z" fill="#8D98A9"/>
</svg>
