<svg width="34" height="34" viewBox="0 0 34 34" fill="none" xmlns="http://www.w3.org/2000/svg">
<circle cx="17" cy="17" r="17" fill="#F3F7FD"/>
<path d="M25.8529 15.0977C25.7997 14.9436 25.7029 14.8081 25.5742 14.7079C25.4455 14.6076 25.2905 14.5469 25.128 14.533L20.3318 13.8334L18.1824 9.4755C18.1134 9.33298 18.0056 9.2128 17.8714 9.1287C17.7373 9.0446 17.5821 9 17.4238 9C17.2654 9 17.1103 9.0446 16.9761 9.1287C16.8419 9.2128 16.7342 9.33298 16.6652 9.4755L14.5157 13.8249L9.71954 14.533C9.56353 14.5552 9.41687 14.6206 9.29618 14.7219C9.1755 14.8232 9.08563 14.9564 9.03678 15.1062C8.99206 15.2526 8.98804 15.4084 9.02517 15.5569C9.06229 15.7054 9.13915 15.841 9.2475 15.9491L12.7287 19.3207L11.8858 24.1085C11.8557 24.2665 11.8715 24.4299 11.9312 24.5792C11.991 24.7286 12.0922 24.8577 12.223 24.9514C12.3505 25.0425 12.5008 25.0963 12.6571 25.1068C12.8135 25.1172 12.9696 25.0838 13.1081 25.0104L17.4238 22.7598L21.7226 25.0188C21.8409 25.0856 21.9746 25.1204 22.1104 25.12C22.2889 25.1206 22.4631 25.0646 22.6077 24.9598C22.7385 24.8662 22.8397 24.737 22.8995 24.5877C22.9592 24.4383 22.975 24.275 22.9449 24.1169L22.102 19.3292L25.5832 15.9575C25.7049 15.8544 25.7948 15.7189 25.8426 15.5667C25.8903 15.4145 25.8939 15.2519 25.8529 15.0977ZM20.669 18.4694C20.5701 18.565 20.4962 18.6834 20.4536 18.8141C20.411 18.9449 20.401 19.0841 20.4246 19.2196L21.0315 22.7514L17.8621 21.0656C17.7401 21.0006 17.6041 20.9667 17.4659 20.9667C17.3278 20.9667 17.1917 21.0006 17.0698 21.0656L13.9004 22.7514L14.5073 19.2196C14.5308 19.0841 14.5209 18.9449 14.4783 18.8141C14.4357 18.6834 14.3617 18.565 14.2628 18.4694L11.7341 15.9407L15.2828 15.4265C15.4193 15.4075 15.5491 15.3553 15.6608 15.2745C15.7725 15.1936 15.8627 15.0866 15.9234 14.9629L17.4238 11.7514L19.0085 14.9713C19.0692 15.0951 19.1593 15.2021 19.271 15.2829C19.3827 15.3637 19.5125 15.4159 19.6491 15.4349L23.1977 15.9491L20.669 18.4694Z" fill="#8D98A9"/>
</svg>
