<svg width="36" height="36" viewBox="0 0 36 36" fill="none" xmlns="http://www.w3.org/2000/svg">
<circle cx="18" cy="18" r="18" fill="#4BA8A8"/>
<path d="M21.3708 16.9458L15.7108 11.2958C15.6178 11.2021 15.5072 11.1277 15.3854 11.0769C15.2635 11.0261 15.1328 11 15.0008 11C14.8688 11 14.7381 11.0261 14.6162 11.0769C14.4944 11.1277 14.3838 11.2021 14.2908 11.2958C14.1045 11.4832 14 11.7366 14 12.0008C14 12.265 14.1045 12.5184 14.2908 12.7058L19.2408 17.7058L14.2908 22.6558C14.1045 22.8432 14 23.0966 14 23.3608C14 23.625 14.1045 23.8784 14.2908 24.0658C14.3834 24.1603 14.4939 24.2355 14.6157 24.287C14.7376 24.3384 14.8685 24.3652 15.0008 24.3658C15.1331 24.3652 15.264 24.3384 15.3859 24.287C15.5077 24.2355 15.6182 24.1603 15.7108 24.0658L21.3708 18.4158C21.4723 18.3222 21.5533 18.2085 21.6087 18.082C21.6641 17.9555 21.6927 17.8189 21.6927 17.6808C21.6927 17.5427 21.6641 17.4061 21.6087 17.2796C21.5533 17.1531 21.4723 17.0394 21.3708 16.9458Z" fill="white"/>
</svg>
