<svg width="8" height="14" viewBox="0 0 8 14" fill="none" xmlns="http://www.w3.org/2000/svg">
<path d="M0.321957 8.0542L5.98196 13.7042C6.07492 13.7979 6.18552 13.8723 6.30738 13.9231C6.42924 13.9739 6.55994 14 6.69196 14C6.82397 14 6.95467 13.9739 7.07653 13.9231C7.19839 13.8723 7.30899 13.7979 7.40196 13.7042C7.58821 13.5168 7.69275 13.2634 7.69275 12.9992C7.69275 12.735 7.58821 12.4816 7.40196 12.2942L2.45196 7.2942L7.40196 2.3442C7.58821 2.15684 7.69275 1.90339 7.69275 1.6392C7.69275 1.37502 7.58821 1.12156 7.40196 0.934202C7.30934 0.839714 7.1989 0.764543 7.07702 0.713047C6.95515 0.66155 6.82426 0.634752 6.69196 0.634203C6.55965 0.634752 6.42877 0.66155 6.30689 0.713047C6.18502 0.764543 6.07457 0.839714 5.98196 0.934202L0.321957 6.5842C0.220452 6.67784 0.139444 6.79149 0.0840365 6.91799C0.028629 7.04449 2.4438e-05 7.1811 2.44259e-05 7.3192C2.44138e-05 7.4573 0.0286289 7.59391 0.0840364 7.72041C0.139444 7.84691 0.220452 7.96056 0.321957 8.0542Z" fill="#4BA8A8"/>
</svg>
