<svg width="24" height="24" viewBox="0 0 24 24" fill="none" xmlns="http://www.w3.org/2000/svg">
<g clip-path="url(#clip0_1_357)">
<path d="M21 18.0233C21 18.5113 20.6043 18.907 20.1163 18.907H3.88372C3.39565 18.907 3 18.5113 3 18.0233V18.0233C3 17.5352 3.39566 17.1395 3.88372 17.1395H3.9V10.9809C3.9 6.57288 7.527 3 12 3C16.473 3 20.1 6.57288 20.1 10.9809V17.1395H20.1163C20.6043 17.1395 21 17.5352 21 18.0233V18.0233ZM5.7 17.1395H18.3V10.9809C18.3 7.5494 15.4794 4.76744 12 4.76744C8.5206 4.76744 5.7 7.5494 5.7 10.9809V17.1395ZM9.97604 20.7558C9.73121 20.2608 10.1977 19.7907 10.75 19.7907H13.25C13.8023 19.7907 14.2688 20.2608 14.024 20.7558C13.9155 20.9751 13.7699 21.1773 13.591 21.3529C13.169 21.7672 12.5967 22 12 22C11.4033 22 10.831 21.7672 10.409 21.3529C10.2301 21.1773 10.0845 20.9751 9.97604 20.7558Z" fill="#768396"/>
<circle cx="18.5" cy="5.5" r="5.5" fill="#4BA8A8"/>
<path d="M16.408 8V7.256C16.7493 6.97333 17.08 6.69333 17.4 6.416C17.7253 6.13867 18.0133 5.864 18.264 5.592C18.52 5.32 18.7227 5.056 18.872 4.8C19.0267 4.53867 19.104 4.28533 19.104 4.04C19.104 3.81067 19.04 3.608 18.912 3.432C18.7893 3.256 18.584 3.168 18.296 3.168C18.0027 3.168 17.7813 3.264 17.632 3.456C17.4827 3.648 17.408 3.88 17.408 4.152H16.416C16.4267 3.74133 16.5173 3.4 16.688 3.128C16.8587 2.85067 17.0853 2.64533 17.368 2.512C17.6507 2.37333 17.968 2.304 18.32 2.304C18.8907 2.304 19.3333 2.46133 19.648 2.776C19.968 3.08533 20.128 3.488 20.128 3.984C20.128 4.29333 20.056 4.59467 19.912 4.888C19.7733 5.18133 19.5893 5.464 19.36 5.736C19.1307 6.008 18.8827 6.264 18.616 6.504C18.3493 6.73867 18.0907 6.95733 17.84 7.16H20.264V8H16.408Z" fill="white"/>
</g>
<defs>
<clipPath id="clip0_1_357">
<rect width="24" height="24" fill="white"/>
</clipPath>
</defs>
</svg>
