<svg width="74" height="73" viewBox="0 0 74 73" fill="none" xmlns="http://www.w3.org/2000/svg">
<g filter="url(#filter0_d_1_324)">
<rect x="14" y="6" width="46" height="45" rx="14" fill="#005555"/>
</g>
<path fill-rule="evenodd" clip-rule="evenodd" d="M42.5 31C42.0478 31 41.4089 31.0625 40.7438 31.1536C40.4331 31.1962 40.1962 31.4331 40.1536 31.7438C40.0625 32.4089 40 33.0478 40 33.5C40 33.9522 40.0625 34.5911 40.1536 35.2562C40.1962 35.5669 40.4331 35.8038 40.7438 35.8464C41.4089 35.9375 42.0478 36 42.5 36C42.9522 36 43.5911 35.9375 44.2562 35.8464C44.5669 35.8038 44.8038 35.5669 44.8464 35.2562C44.9375 34.5911 45 33.9522 45 33.5C45 33.0478 44.9375 32.4089 44.8464 31.7438C44.8038 31.4331 44.5669 31.1962 44.2562 31.1536C43.5911 31.0625 42.9522 31 42.5 31ZM40.4724 29.1721C39.2725 29.3364 38.3364 30.2725 38.1721 31.4724C38.0778 32.1606 38 32.9082 38 33.5C38 34.0918 38.0778 34.8394 38.1721 35.5276C38.3364 36.7275 39.2725 37.6636 40.4724 37.8279C41.1606 37.9222 41.9082 38 42.5 38C43.0918 38 43.8394 37.9222 44.5276 37.8279C45.7275 37.6636 46.6636 36.7275 46.8279 35.5276C46.9222 34.8394 47 34.0918 47 33.5C47 32.9082 46.9222 32.1606 46.8279 31.4724C46.6636 30.2725 45.7275 29.3364 44.5276 29.1721C43.8394 29.0778 43.0918 29 42.5 29C41.9082 29 41.1606 29.0778 40.4724 29.1721Z" fill="white"/>
<path fill-rule="evenodd" clip-rule="evenodd" d="M31.5 31C31.0478 31 30.4089 31.0625 29.7438 31.1536C29.4331 31.1962 29.1962 31.4331 29.1536 31.7438C29.0625 32.4089 29 33.0478 29 33.5C29 33.9522 29.0625 34.5911 29.1536 35.2562C29.1962 35.5669 29.4331 35.8038 29.7438 35.8464C30.4089 35.9375 31.0478 36 31.5 36C31.9522 36 32.5911 35.9375 33.2562 35.8464C33.5669 35.8038 33.8038 35.5669 33.8464 35.2562C33.9375 34.5911 34 33.9522 34 33.5C34 33.0478 33.9375 32.4089 33.8464 31.7438C33.8038 31.4331 33.5669 31.1962 33.2562 31.1536C32.5911 31.0625 31.9522 31 31.5 31ZM29.4724 29.1721C28.2725 29.3364 27.3364 30.2725 27.1721 31.4724C27.0778 32.1606 27 32.9082 27 33.5C27 34.0918 27.0778 34.8394 27.1721 35.5276C27.3364 36.7275 28.2725 37.6636 29.4724 37.8279C30.1606 37.9222 30.9082 38 31.5 38C32.0918 38 32.8394 37.9222 33.5276 37.8279C34.7275 37.6636 35.6636 36.7275 35.8279 35.5276C35.9222 34.8394 36 34.0918 36 33.5C36 32.9082 35.9222 32.1606 35.8279 31.4724C35.6636 30.2725 34.7275 29.3364 33.5276 29.1721C32.8394 29.0778 32.0918 29 31.5 29C30.9082 29 30.1606 29.0778 29.4724 29.1721Z" fill="white"/>
<path fill-rule="evenodd" clip-rule="evenodd" d="M42.5 20C42.0478 20 41.4089 20.0625 40.7438 20.1536C40.4331 20.1962 40.1962 20.4331 40.1536 20.7438C40.0625 21.4089 40 22.0478 40 22.5C40 22.9522 40.0625 23.5911 40.1536 24.2562C40.1962 24.5669 40.4331 24.8038 40.7438 24.8464C41.4089 24.9375 42.0478 25 42.5 25C42.9522 25 43.5911 24.9375 44.2562 24.8464C44.5669 24.8038 44.8038 24.5669 44.8464 24.2562C44.9375 23.5911 45 22.9522 45 22.5C45 22.0478 44.9375 21.4089 44.8464 20.7438C44.8038 20.4331 44.5669 20.1962 44.2562 20.1536C43.5911 20.0625 42.9522 20 42.5 20ZM40.4724 18.1721C39.2725 18.3364 38.3364 19.2725 38.1721 20.4724C38.0778 21.1606 38 21.9082 38 22.5C38 23.0918 38.0778 23.8394 38.1721 24.5276C38.3364 25.7275 39.2725 26.6636 40.4724 26.8279C41.1606 26.9222 41.9082 27 42.5 27C43.0918 27 43.8394 26.9222 44.5276 26.8279C45.7275 26.6636 46.6636 25.7275 46.8279 24.5276C46.9222 23.8394 47 23.0918 47 22.5C47 21.9082 46.9222 21.1606 46.8279 20.4724C46.6636 19.2725 45.7275 18.3364 44.5276 18.1721C43.8394 18.0778 43.0918 18 42.5 18C41.9082 18 41.1606 18.0778 40.4724 18.1721Z" fill="white"/>
<path fill-rule="evenodd" clip-rule="evenodd" d="M31.5 20C31.0478 20 30.4089 20.0625 29.7438 20.1536C29.4331 20.1962 29.1962 20.4331 29.1536 20.7438C29.0625 21.4089 29 22.0478 29 22.5C29 22.9522 29.0625 23.5911 29.1536 24.2562C29.1962 24.5669 29.4331 24.8038 29.7438 24.8464C30.4089 24.9375 31.0478 25 31.5 25C31.9522 25 32.5911 24.9375 33.2562 24.8464C33.5669 24.8038 33.8038 24.5669 33.8464 24.2562C33.9375 23.5911 34 22.9522 34 22.5C34 22.0478 33.9375 21.4089 33.8464 20.7438C33.8038 20.4331 33.5669 20.1962 33.2562 20.1536C32.5911 20.0625 31.9522 20 31.5 20ZM29.4724 18.1721C28.2725 18.3364 27.3364 19.2725 27.1721 20.4724C27.0778 21.1606 27 21.9082 27 22.5C27 23.0918 27.0778 23.8394 27.1721 24.5276C27.3364 25.7275 28.2725 26.6636 29.4724 26.8279C30.1606 26.9222 30.9082 27 31.5 27C32.0918 27 32.8394 26.9222 33.5276 26.8279C34.7275 26.6636 35.6636 25.7275 35.8279 24.5276C35.9222 23.8394 36 23.0918 36 22.5C36 21.9082 35.9222 21.1606 35.8279 20.4724C35.6636 19.2725 34.7275 18.3364 33.5276 18.1721C32.8394 18.0778 32.0918 18 31.5 18C30.9082 18 30.1606 18.0778 29.4724 18.1721Z" fill="white"/>
<defs>
<filter id="filter0_d_1_324" x="0" y="0" width="74" height="73" filterUnits="userSpaceOnUse" color-interpolation-filters="sRGB">
<feFlood flood-opacity="0" result="BackgroundImageFix"/>
<feColorMatrix in="SourceAlpha" type="matrix" values="0 0 0 0 0 0 0 0 0 0 0 0 0 0 0 0 0 0 127 0" result="hardAlpha"/>
<feOffset dy="8"/>
<feGaussianBlur stdDeviation="7"/>
<feComposite in2="hardAlpha" operator="out"/>
<feColorMatrix type="matrix" values="0 0 0 0 0.241771 0 0 0 0 0.420242 0 0 0 0 0.879167 0 0 0 0.12 0"/>
<feBlend mode="normal" in2="BackgroundImageFix" result="effect1_dropShadow_1_324"/>
<feBlend mode="normal" in="SourceGraphic" in2="effect1_dropShadow_1_324" result="shape"/>
</filter>
</defs>
</svg>
