<svg width="20" height="20" viewBox="0 0 20 20" fill="none" xmlns="http://www.w3.org/2000/svg">
<path d="M12 11H11V10C11 9.73481 10.8946 9.48045 10.7071 9.29292C10.5196 9.10538 10.2652 9.00002 10 9.00002C9.73478 9.00002 9.48043 9.10538 9.29289 9.29292C9.10536 9.48045 9 9.73481 9 10V11H8C7.73478 11 7.48043 11.1054 7.29289 11.2929C7.10536 11.4805 7 11.7348 7 12C7 12.2652 7.10536 12.5196 7.29289 12.7071C7.48043 12.8947 7.73478 13 8 13H9V14C9 14.2652 9.10536 14.5196 9.29289 14.7071C9.48043 14.8947 9.73478 15 10 15C10.2652 15 10.5196 14.8947 10.7071 14.7071C10.8946 14.5196 11 14.2652 11 14V13H12C12.2652 13 12.5196 12.8947 12.7071 12.7071C12.8946 12.5196 13 12.2652 13 12C13 11.7348 12.8946 11.4805 12.7071 11.2929C12.5196 11.1054 12.2652 11 12 11ZM17 4.00002H10.72L10.4 3.00002C10.1926 2.41325 9.80775 1.90553 9.2989 1.54718C8.79005 1.18884 8.18236 0.997623 7.56 1.00002H3C2.20435 1.00002 1.44129 1.31609 0.87868 1.8787C0.316071 2.44131 0 3.20437 0 4.00002V17C0 17.7957 0.316071 18.5587 0.87868 19.1213C1.44129 19.684 2.20435 20 3 20H17C17.7956 20 18.5587 19.684 19.1213 19.1213C19.6839 18.5587 20 17.7957 20 17V7.00002C20 6.20437 19.6839 5.44131 19.1213 4.8787C18.5587 4.31609 17.7956 4.00002 17 4.00002ZM18 17C18 17.2652 17.8946 17.5196 17.7071 17.7071C17.5196 17.8947 17.2652 18 17 18H3C2.73478 18 2.48043 17.8947 2.29289 17.7071C2.10536 17.5196 2 17.2652 2 17V4.00002C2 3.73481 2.10536 3.48045 2.29289 3.29292C2.48043 3.10538 2.73478 3.00002 3 3.00002H7.56C7.76964 2.99948 7.97416 3.06484 8.14463 3.18686C8.3151 3.30889 8.44291 3.4814 8.51 3.68002L9.05 5.32002C9.11709 5.51864 9.2449 5.69116 9.41537 5.81318C9.58584 5.9352 9.79036 6.00056 10 6.00002H17C17.2652 6.00002 17.5196 6.10538 17.7071 6.29292C17.8946 6.48045 18 6.73481 18 7.00002V17Z" fill="#5F6388"/>
</svg>
