<svg width="20" height="20" viewBox="0 0 20 20" fill="none" xmlns="http://www.w3.org/2000/svg">
<path d="M18.183 7.00798L4.19105 1.22798C3.66163 1.00877 3.08052 0.945927 2.51651 1.0469C1.9525 1.14786 1.42922 1.40841 1.00861 1.7977C0.587999 2.18699 0.287673 2.68871 0.143187 3.24348C-0.00129992 3.79824 0.0161035 4.38281 0.193336 4.92798L1.73246 9.77798L0.153359 14.628C-0.028665 15.1753 -0.0491122 15.7636 0.0944673 16.3223C0.238047 16.881 0.539564 17.3864 0.962896 17.778C1.50722 18.283 2.21946 18.5681 2.96175 18.578C3.35626 18.5777 3.74683 18.4996 4.11109 18.348L18.1531 12.568C18.6999 12.3404 19.1672 11.9559 19.4959 11.4629C19.8246 10.9699 20 10.3906 20 9.79798C20 9.20537 19.8246 8.62603 19.4959 8.13305C19.1672 7.64007 18.6999 7.25555 18.1531 7.02798L18.183 7.00798ZM3.38151 16.478C3.20521 16.5507 3.01179 16.5715 2.82407 16.5379C2.63635 16.5042 2.46218 16.4175 2.32212 16.288C2.19018 16.1618 2.09528 16.0019 2.04771 15.8257C2.00014 15.6494 2.00172 15.4634 2.05227 15.288L3.51144 10.778L17.2336 10.778L3.38151 16.478ZM3.51144 8.77798L2.02229 4.30798C1.97174 4.13253 1.97016 3.94658 2.01773 3.7703C2.0653 3.59402 2.1602 3.43413 2.29213 3.30798C2.38619 3.20926 2.49943 3.13083 2.6249 3.07752C2.75037 3.02421 2.88541 2.99714 3.02172 2.99798C3.15569 2.99824 3.28824 3.02545 3.41149 3.07798L17.2336 8.77798H3.51144Z" fill="#5F6388"/>
</svg>
