<svg width="20" height="20" viewBox="0 0 20 20" fill="none" xmlns="http://www.w3.org/2000/svg">
<path d="M19.1578 0.187887C18.442 0.0657961 17.7171 0.00295143 16.9907 4.30177e-06C14.5124 -0.00200751 12.0857 0.70167 10 2.02716C7.90892 0.719074 5.48264 0.032667 3.00928 0.0494471C2.28289 0.0523942 1.55801 0.115239 0.842151 0.23733C0.607668 0.277357 0.395324 0.398967 0.243359 0.580258C0.0913926 0.761549 0.00979153 0.990609 0.0132507 1.22619V13.0925C0.0111118 13.2378 0.0413396 13.3817 0.101783 13.5141C0.162227 13.6466 0.251401 13.7642 0.36296 13.8586C0.474519 13.953 0.605722 14.0219 0.747233 14.0604C0.888743 14.0989 1.03708 14.106 1.1817 14.0813C2.61282 13.836 4.07906 13.8767 5.49404 14.201C6.90903 14.5254 8.24415 15.1269 9.42077 15.97L9.54061 16.0393H9.65046C9.76122 16.0849 9.88002 16.1085 10 16.1085C10.12 16.1085 10.2388 16.0849 10.3495 16.0393H10.4594L10.5792 15.97C11.7476 15.108 13.0789 14.4871 14.4942 14.144C15.9094 13.8008 17.3799 13.7426 18.8183 13.9725C18.9629 13.9973 19.1113 13.9901 19.2528 13.9516C19.3943 13.9131 19.5255 13.8442 19.637 13.7498C19.7486 13.6554 19.8378 13.5378 19.8982 13.4054C19.9587 13.273 19.9889 13.129 19.9867 12.9837V1.11741C19.9764 0.892104 19.8885 0.677085 19.7377 0.508017C19.587 0.33895 19.3824 0.225994 19.1578 0.187887ZM9.00133 13.3298C7.15366 12.3673 5.09702 11.865 3.00928 11.8663C2.67971 11.8663 2.35015 11.8663 2.0106 11.8663V1.97772C2.34322 1.95874 2.67666 1.95874 3.00928 1.97772C5.13983 1.97539 7.2239 2.59446 9.00133 3.75766V13.3298ZM17.9894 11.9058C17.6498 11.9058 17.3203 11.9058 16.9907 11.9058C14.903 11.9046 12.8463 12.4069 10.9987 13.3693V3.75766C12.7761 2.59446 14.8602 1.97539 16.9907 1.97772C17.3233 1.95874 17.6568 1.95874 17.9894 1.97772V11.9058ZM19.1578 16.0096C18.442 15.8875 17.7171 15.8247 16.9907 15.8217C14.5124 15.8197 12.0857 16.5234 10 17.8489C7.91428 16.5234 5.48762 15.8197 3.00928 15.8217C2.28289 15.8247 1.55801 15.8875 0.842151 16.0096C0.712151 16.03 0.587511 16.0757 0.4754 16.144C0.363288 16.2123 0.265917 16.3018 0.188884 16.4075C0.111852 16.5132 0.0566785 16.6329 0.0265368 16.7598C-0.00360488 16.8867 -0.00812012 17.0182 0.0132507 17.1468C0.064002 17.4036 0.215473 17.63 0.434482 17.7764C0.653492 17.9228 0.922184 17.9773 1.1817 17.928C2.61282 17.6826 4.07906 17.7233 5.49404 18.0477C6.90903 18.3721 8.24415 18.9735 9.42077 19.8167C9.58991 19.9359 9.79237 20 10 20C10.2076 20 10.4101 19.9359 10.5792 19.8167C11.7558 18.9735 13.091 18.3721 14.506 18.0477C15.9209 17.7233 17.3872 17.6826 18.8183 17.928C19.0778 17.9773 19.3465 17.9228 19.5655 17.7764C19.7845 17.63 19.936 17.4036 19.9867 17.1468C20.0081 17.0182 20.0036 16.8867 19.9735 16.7598C19.9433 16.6329 19.8881 16.5132 19.8111 16.4075C19.7341 16.3018 19.6367 16.2123 19.5246 16.144C19.4125 16.0757 19.2878 16.03 19.1578 16.0096Z" fill="#5F6388"/>
</svg>
