<svg width="32" height="32" viewBox="0 0 32 32" fill="none" xmlns="http://www.w3.org/2000/svg">
<g clip-path="url(#clip0_1_311)">
<path d="M27.6985 31.9945C26.7026 31.9946 25.7374 31.6468 24.9676 31.0104C24.1977 30.374 23.6708 29.4884 23.4765 28.5044C23.2822 27.5205 23.4327 26.4992 23.9022 25.6145C24.3718 24.7298 25.1313 24.0364 26.0515 23.6527C26.9716 23.2689 27.9954 23.2184 28.9484 23.5098C29.9014 23.8012 30.7245 24.4165 31.2776 25.2508C31.8307 26.0851 32.0794 27.0867 31.9815 28.0851C31.8835 29.0834 31.445 30.0166 30.7405 30.7257C30.3418 31.1292 29.8677 31.449 29.3455 31.6668C28.8234 31.8846 28.2636 31.9959 27.6985 31.9945Z" fill="#F8B400"/>
<path d="M4.3072 8.87571C3.4559 8.87541 2.62379 8.62099 1.91595 8.14458C1.20812 7.66818 0.656307 6.99116 0.330218 6.19904C0.00412915 5.40691 -0.0816132 4.53521 0.0838203 3.69403C0.249254 2.85284 0.658443 2.07991 1.25971 1.47285C2.06737 0.65968 3.16254 0.202881 4.30446 0.202881C5.44637 0.202881 6.54155 0.65968 7.34921 1.47285C7.74925 1.87551 8.06659 2.35363 8.28311 2.87989C8.49963 3.40615 8.61107 3.97024 8.61107 4.5399C8.61107 5.10957 8.49963 5.67366 8.28311 6.19992C8.06659 6.72618 7.74925 7.2043 7.34921 7.60696C6.95079 8.01077 6.47672 8.33086 5.95452 8.54866C5.43232 8.76646 4.87238 8.87762 4.3072 8.87571Z" fill="#F8B400"/>
<path d="M27.5042 8.74606C26.6529 8.74576 25.8208 8.49134 25.113 8.01494C24.4051 7.53853 23.8533 6.86152 23.5272 6.06939C23.2011 5.27727 23.1154 4.40557 23.2808 3.56438C23.4463 2.7232 23.8555 1.95026 24.4567 1.3432C24.9572 0.83792 25.5737 0.464818 26.2515 0.256969C26.9294 0.04912 27.6477 0.0129449 28.3427 0.15165C29.0378 0.290356 29.6881 0.599657 30.2361 1.05214C30.7841 1.50462 31.2128 2.0863 31.4842 2.74561C31.7557 3.40493 31.8614 4.12152 31.7921 4.83185C31.7228 5.54218 31.4806 6.22432 31.0869 6.8178C30.6933 7.41127 30.1604 7.89775 29.5354 8.23411C28.9105 8.57047 28.2128 8.74632 27.5042 8.74606Z" fill="#F8B400"/>
<path d="M4.41942 31.9945C3.56843 31.9949 2.7364 31.7413 2.02847 31.2656C1.32054 30.7899 0.768482 30.1135 0.442053 29.3218C0.115625 28.5302 0.0294781 27.6588 0.194499 26.8179C0.359519 25.9769 0.768302 25.2041 1.36919 24.5971C1.55457 24.4113 1.75823 24.245 1.97704 24.1007C2.05097 24.0483 2.11669 24.0069 2.18788 23.9655C2.34669 23.8717 2.50549 23.789 2.65335 23.72C2.73549 23.6842 2.81764 23.6456 2.90525 23.6125C3.07889 23.5459 3.25626 23.4898 3.43644 23.4442L3.54597 23.4139L3.61168 23.3973L4.57001 23.3311C4.69049 23.3311 4.82191 23.3504 4.95882 23.3698H5.01358H5.13406H5.17239H5.2162H5.25453H5.46536C6.30098 23.363 7.12691 23.1889 7.89503 22.8574C8.66315 22.5259 9.35811 22.0438 9.9394 21.439C10.5233 20.8407 10.9827 20.1309 11.2907 19.3513C11.5986 18.5717 11.749 17.738 11.7328 16.8991V16.8523V16.7998C11.7256 16.7533 11.721 16.7063 11.7192 16.6592C11.7192 16.604 11.7137 16.5489 11.7027 16.4937V16.3972C11.7027 16.3117 11.6863 16.2317 11.6808 16.1489L11.752 15.1808C11.7581 15.1565 11.7654 15.1326 11.7739 15.1091L11.7903 15.0484C11.8317 14.8611 11.8857 14.6768 11.9519 14.4968C11.9822 14.4105 12.0169 14.3258 12.0559 14.243C12.124 14.0885 12.1998 13.9375 12.2832 13.7907C12.3243 13.7218 12.3653 13.6528 12.4119 13.5839C12.5577 13.3637 12.7236 13.1578 12.9075 12.9688C13.7165 12.1554 14.8131 11.6989 15.9561 11.7C17.0991 11.701 18.1949 12.1594 19.0025 12.9743C19.81 13.7892 20.2631 14.8939 20.262 16.0453C20.261 17.1967 19.806 18.3005 18.997 19.1139C18.8102 19.2982 18.6067 19.4644 18.3891 19.6104C18.3179 19.66 18.2495 19.7014 18.181 19.74C18.0308 19.8319 17.8754 19.9148 17.7156 19.9883C17.6307 20.0269 17.5458 20.0655 17.4664 20.0958C17.2961 20.1609 17.1213 20.2135 16.9434 20.253L16.8394 20.2806L16.7709 20.3027L15.8016 20.3716C15.6894 20.3716 15.5689 20.3496 15.4429 20.333H15.3581H15.2376H15.2047H15.1554H14.9063C13.2277 20.3556 11.6263 21.0465 10.4519 22.2548C9.27746 23.4631 8.62563 25.0906 8.6388 26.7816V26.8312V26.8781C8.64608 26.9247 8.65065 26.9717 8.6525 27.0188C8.6525 27.0767 8.6525 27.1291 8.66892 27.1843C8.67162 27.2351 8.6771 27.2857 8.68535 27.336C8.68535 27.4022 8.68535 27.4684 8.68535 27.5346V27.5566L8.6169 28.4861C8.6169 28.5054 8.58131 28.613 8.57309 28.6461C8.53274 28.8334 8.47967 29.0177 8.41428 29.1977C8.3855 29.2815 8.35167 29.3635 8.31297 29.4432C8.23808 29.6082 8.15491 29.7693 8.06381 29.9259C8.02274 29.9921 7.97619 30.0693 7.9269 30.141C7.78349 30.358 7.61934 30.5603 7.43679 30.745C6.63506 31.5478 5.54982 31.9971 4.41942 31.9945Z" fill="#F8B400"/>
<path d="M16.048 31.9945C15.1976 31.9944 14.3663 31.7406 13.6589 31.265C12.9516 30.7894 12.3999 30.1134 12.0736 29.3224C11.7473 28.5313 11.6609 27.6606 11.8254 26.8201C11.9899 25.9796 12.3979 25.207 12.9978 24.5999C13.1859 24.4132 13.3912 24.2451 13.6111 24.0979C13.6741 24.0538 13.7426 24.0124 13.8138 23.971C13.9655 23.8794 14.1218 23.7956 14.282 23.72L14.5311 23.6125C14.7012 23.551 14.875 23.5003 15.0514 23.4608L15.2211 23.4111L16.1959 23.3394C16.3109 23.3394 16.4341 23.3615 16.5628 23.378H16.6367H16.7654H16.812H16.8421H16.8832H17.0967C18.7739 23.3533 20.3732 22.6614 21.5458 21.4533C22.7185 20.2453 23.3692 18.619 23.356 16.9295V16.7281L23.3396 16.7061C23.338 16.6988 23.338 16.6913 23.3396 16.684V16.5406L23.3231 16.4027C23.3231 16.3254 23.304 16.251 23.3012 16.1737L23.3669 15.236C23.3669 15.2112 23.4053 15.0953 23.4135 15.0622C23.4473 14.8813 23.4921 14.7026 23.5477 14.5271C23.5788 14.4416 23.6144 14.3578 23.6544 14.2761C23.728 14.1137 23.8103 13.9553 23.9009 13.8017L23.92 13.7714C23.9529 13.7135 23.9857 13.6583 24.0241 13.6032C24.1711 13.3815 24.3379 13.1737 24.5224 12.9826C25.3305 12.1692 26.4262 11.7124 27.5685 11.7124C28.7109 11.7124 29.8065 12.1692 30.6146 12.9826C31.4194 13.798 31.8711 14.9012 31.8711 16.051C31.8711 17.2009 31.4194 18.304 30.6146 19.1194C30.4255 19.3021 30.2212 19.4682 30.0041 19.6159L29.8617 19.7069L29.7877 19.7538C29.6406 19.841 29.4888 19.9202 29.3332 19.991C29.2456 20.0324 29.1662 20.0682 29.0813 20.1013C28.9087 20.1644 28.7322 20.216 28.5529 20.2558L28.4433 20.2889L28.3776 20.3055L27.4193 20.3744C27.2797 20.3744 27.1291 20.3468 26.9812 20.3275H26.8553H26.8334H26.7512H26.5376C24.8562 20.3464 23.251 21.0367 22.0744 22.2468C20.8977 23.4569 20.2459 25.0878 20.2619 26.7816V26.8312V26.8781C20.2646 26.9277 20.2646 26.9774 20.2619 27.0271C20.2619 27.0767 20.2619 27.1291 20.2756 27.176C20.2893 27.2229 20.2756 27.2698 20.2756 27.3222C20.2862 27.3953 20.2926 27.469 20.2948 27.5428L20.2619 28.4944L20.2209 28.6433C20.1795 28.8304 20.1264 29.0146 20.0621 29.195C20.0347 29.2722 19.9991 29.3494 19.9662 29.4266L19.9525 29.4542C19.8809 29.6113 19.8005 29.7642 19.7116 29.9121C19.6678 29.9865 19.6267 30.0583 19.5802 30.1272C19.1901 30.7079 18.6635 31.1824 18.0472 31.5082C17.4308 31.834 16.744 32.0011 16.048 31.9945Z" fill="#F8B400"/>
<path d="M4.42205 20.2917C3.57029 20.2924 2.73742 20.0388 2.02874 19.5628C1.32007 19.0868 0.767411 18.4099 0.440643 17.6175C0.113875 16.8252 0.0276709 15.953 0.19293 15.1113C0.358189 14.2696 0.767489 13.4962 1.36908 12.8888C1.55716 12.7041 1.76153 12.537 1.97968 12.3896L2.19051 12.2544C2.33837 12.1662 2.4917 12.0862 2.65324 12.009C2.73539 11.9731 2.81753 11.9345 2.90789 11.9014C3.07599 11.8395 3.24795 11.7888 3.42265 11.7497L3.53217 11.7193C3.55096 11.7126 3.57016 11.707 3.58967 11.7028L4.56443 11.6311C4.69038 11.6311 4.83824 11.6559 4.9724 11.6752H5.00252H5.13121H5.17228H5.21336H5.47621C6.31044 11.6674 7.13481 11.4927 7.90145 11.1613C8.66809 10.8298 9.36171 10.3483 9.94203 9.74451C10.5255 9.1454 10.9844 8.43503 11.2919 7.65499C11.5994 6.87496 11.7493 6.04096 11.7327 5.20185V5.15496V5.10807C11.7231 5.05527 11.7176 5.00178 11.7163 4.9481V4.81571L11.6807 4.68883C11.6807 4.61161 11.6615 4.52886 11.6588 4.44888L11.7245 3.53869V3.51662V3.50007C11.7245 3.47801 11.7656 3.35665 11.7656 3.35665C11.8072 3.16966 11.8603 2.98543 11.9244 2.80502C11.9545 2.72228 11.9929 2.63953 12.0312 2.55679C12.1031 2.39346 12.1854 2.235 12.2776 2.08239V2.05756C12.3159 1.99413 12.3515 1.93069 12.3954 1.87001C12.5392 1.65165 12.7033 1.44755 12.8855 1.26046C13.6944 0.4441 14.7922 -0.0151075 15.9373 -0.016142C17.0824 -0.0171766 18.181 0.440047 18.9914 1.25494C19.8018 2.06984 20.2577 3.17566 20.2587 4.32913C20.2597 5.48261 19.8058 6.58925 18.9969 7.40561C18.8098 7.58875 18.6064 7.75403 18.389 7.89931C18.3233 7.9462 18.2658 7.9793 18.2083 8.01516L18.1754 8.03446C18.0166 8.12824 17.8633 8.21099 17.7155 8.27994C17.6278 8.31855 17.5484 8.35717 17.4663 8.38751C17.2935 8.45071 17.117 8.50322 16.9378 8.54472C16.8999 8.55282 16.8624 8.56295 16.8256 8.57506L16.7571 8.59437L15.8015 8.66056C15.6811 8.66056 15.5524 8.6385 15.4182 8.62195H15.358H15.2347H15.1553H15.1115H14.898C13.2204 8.64666 11.6206 9.33892 10.4479 10.5476C9.27516 11.7563 8.62478 13.3832 8.6387 15.0733V15.1201V15.1698C8.6461 15.2182 8.65067 15.267 8.65239 15.316C8.65239 15.3684 8.65239 15.418 8.66608 15.4677C8.67977 15.5173 8.66608 15.5614 8.68251 15.6111C8.69206 15.6824 8.69755 15.7543 8.69894 15.8262L8.63049 16.7723C8.62538 16.7974 8.61899 16.8223 8.61132 16.8467L8.58668 16.9322C8.54751 17.1196 8.49535 17.3039 8.4306 17.4839C8.40049 17.5666 8.35941 17.6521 8.32108 17.7376C8.25149 17.8969 8.17381 18.0525 8.08834 18.2037C8.04454 18.281 8.00346 18.3499 7.95692 18.4161C7.81183 18.6368 7.64586 18.8428 7.46132 19.0312C7.06286 19.4342 6.58917 19.7538 6.06755 19.9715C5.54593 20.1893 4.98669 20.3009 4.42205 20.2999V20.2917Z" fill="#F8B400"/>
</g>
<defs>
<clipPath id="clip0_1_311">
<rect width="32" height="32" fill="white"/>
</clipPath>
</defs>
</svg>
